<svg width="82" height="29" viewBox="0 0 82 29" fill="none" xmlns="http://www.w3.org/2000/svg">
<rect x="0.365601" y="0.5" width="28" height="28" rx="8" fill="#007FFF"/>
<path d="M7.3656 14.5L12.0268 19L21.3656 10" stroke="white" stroke-width="2.5" stroke-linecap="round" stroke-linejoin="round"/>
<path d="M48.3556 7.87V9.95H43.8956V21.87H41.8156V9.95H37.3656V7.87H48.3556Z" fill="#3F3D56"/>
<path d="M56.6198 11.87H58.6998V21.87H56.6098L56.5298 20.42C56.2365 20.9333 55.8398 21.3467 55.3398 21.66C54.8398 21.9733 54.2498 22.13 53.5698 22.13C52.8365 22.13 52.1465 21.9933 51.4998 21.72C50.8532 21.44 50.2832 21.0533 49.7898 20.56C49.3032 20.0667 48.9232 19.5 48.6498 18.86C48.3765 18.2133 48.2398 17.52 48.2398 16.78C48.2398 16.0667 48.3732 15.3967 48.6398 14.77C48.9065 14.1367 49.2765 13.5833 49.7498 13.11C50.2232 12.6367 50.7698 12.2667 51.3898 12C52.0165 11.7267 52.6865 11.59 53.3998 11.59C54.1265 11.59 54.7665 11.7567 55.3198 12.09C55.8798 12.4167 56.3432 12.8367 56.7098 13.35L56.6198 11.87ZM53.5198 20.12C54.1065 20.12 54.6198 19.9767 55.0598 19.69C55.4998 19.3967 55.8398 19.0033 56.0798 18.51C56.3265 18.0167 56.4498 17.47 56.4498 16.87C56.4498 16.2633 56.3265 15.7133 56.0798 15.22C55.8332 14.7267 55.4898 14.3367 55.0498 14.05C54.6165 13.7567 54.1065 13.61 53.5198 13.61C52.9398 13.61 52.4098 13.7567 51.9298 14.05C51.4498 14.3433 51.0698 14.7367 50.7898 15.23C50.5098 15.7233 50.3698 16.27 50.3698 16.87C50.3698 17.4767 50.5132 18.0267 50.7998 18.52C51.0932 19.0067 51.4765 19.3967 51.9498 19.69C52.4298 19.9767 52.9532 20.12 53.5198 20.12Z" fill="#3F3D56"/>
<path d="M63.6953 22.06C63.1686 22.0267 62.6553 21.92 62.1553 21.74C61.6553 21.56 61.2153 21.3167 60.8353 21.01C60.462 20.6967 60.182 20.33 59.9953 19.91L61.7653 19.15C61.852 19.33 62.002 19.5067 62.2153 19.68C62.4353 19.8533 62.692 19.9967 62.9853 20.11C63.2786 20.2167 63.5853 20.27 63.9053 20.27C64.2186 20.27 64.5086 20.2267 64.7753 20.14C65.0486 20.0467 65.272 19.9067 65.4453 19.72C65.6186 19.5333 65.7053 19.31 65.7053 19.05C65.7053 18.7567 65.6053 18.53 65.4053 18.37C65.212 18.2033 64.9686 18.0767 64.6753 17.99C64.382 17.9033 64.0886 17.82 63.7953 17.74C63.142 17.5933 62.542 17.3933 61.9953 17.14C61.4553 16.88 61.0253 16.55 60.7053 16.15C60.3853 15.7433 60.2253 15.2467 60.2253 14.66C60.2253 14.02 60.3986 13.4667 60.7453 13C61.092 12.5267 61.5453 12.1633 62.1053 11.91C62.672 11.6567 63.2753 11.53 63.9153 11.53C64.7153 11.53 65.4486 11.7 66.1153 12.04C66.782 12.38 67.292 12.8467 67.6453 13.44L65.9953 14.42C65.8953 14.22 65.7453 14.04 65.5453 13.88C65.3453 13.72 65.1186 13.5933 64.8653 13.5C64.612 13.4 64.3486 13.3433 64.0753 13.33C63.7353 13.3167 63.4186 13.3567 63.1253 13.45C62.8386 13.5367 62.6086 13.6767 62.4353 13.87C62.262 14.0633 62.1753 14.31 62.1753 14.61C62.1753 14.9033 62.2786 15.1233 62.4853 15.27C62.692 15.41 62.952 15.5233 63.2653 15.61C63.5853 15.6967 63.912 15.7933 64.2453 15.9C64.8386 16.0867 65.3953 16.3167 65.9153 16.59C66.4353 16.8567 66.8553 17.1867 67.1753 17.58C67.4953 17.9733 67.6486 18.4533 67.6353 19.02C67.6353 19.6467 67.4453 20.1967 67.0653 20.67C66.692 21.1433 66.2053 21.5033 65.6053 21.75C65.0053 21.9967 64.3686 22.1 63.6953 22.06Z" fill="#3F3D56"/>
<path d="M77.8976 21.87H75.4976L73.0376 17.63L71.4276 19.55V21.87H69.3476V6.87H71.4276V16.32L75.1476 11.87H77.8676L74.4576 15.94L77.8976 21.87Z" fill="#3F3D56"/>
<path d="M79.4844 11.87H81.5644V21.87H79.4844V11.87ZM80.5443 10.42C80.2243 10.42 79.9577 10.3167 79.7444 10.11C79.531 9.90333 79.4244 9.64333 79.4244 9.33C79.4244 9.02333 79.531 8.76666 79.7444 8.56C79.9577 8.34666 80.221 8.24 80.5344 8.24C80.841 8.24 81.101 8.34666 81.3144 8.56C81.5277 8.76666 81.6343 9.02333 81.6343 9.33C81.6343 9.64333 81.5277 9.90333 81.3144 10.11C81.1077 10.3167 80.851 10.42 80.5443 10.42Z" fill="#3F3D56"/>
</svg>
